<svg width="32" height="32" viewBox="0 0 32 32" fill="none" xmlns="http://www.w3.org/2000/svg">
<path fill-rule="evenodd" clip-rule="evenodd" d="M15.9999 28.7999C19.3947 28.7999 22.6504 27.4514 25.0509 25.0509C27.4514 22.6504 28.7999 19.3947 28.7999 15.9999C28.7999 12.6052 27.4514 9.34945 25.0509 6.94898C22.6504 4.54852 19.3947 3.19995 15.9999 3.19995C12.6052 3.19995 9.34945 4.54852 6.94898 6.94898C4.54852 9.34945 3.19995 12.6052 3.19995 15.9999C3.19995 19.3947 4.54852 22.6504 6.94898 25.0509C9.34945 27.4514 12.6052 28.7999 15.9999 28.7999ZM15.2879 11.4688C15.047 11.308 14.7669 11.2156 14.4776 11.2016C14.1882 11.1875 13.9005 11.2523 13.6451 11.389C13.3897 11.5256 13.1762 11.729 13.0273 11.9775C12.8785 12.226 12.7999 12.5103 12.7999 12.7999V19.1999C12.7999 19.4896 12.8785 19.7739 13.0273 20.0224C13.1762 20.2709 13.3897 20.4743 13.6451 20.6109C13.9005 20.7476 14.1882 20.8124 14.4776 20.7983C14.7669 20.7842 15.047 20.6919 15.2879 20.5311L20.0879 17.3311C20.3071 17.185 20.4868 16.9871 20.611 16.7549C20.7353 16.5226 20.8003 16.2633 20.8003 15.9999C20.8003 15.7366 20.7353 15.4773 20.611 15.245C20.4868 15.0128 20.3071 14.8149 20.0879 14.6687L15.2879 11.4688Z" fill="#556AEB"/>
<path d="M15.2879 11.4688C15.047 11.308 14.7669 11.2156 14.4776 11.2016C14.1882 11.1875 13.9005 11.2523 13.6451 11.389C13.3897 11.5256 13.1762 11.729 13.0273 11.9775C12.8785 12.226 12.7999 12.5103 12.7999 12.7999V19.1999C12.7999 19.4896 12.8785 19.7739 13.0273 20.0224C13.1762 20.2709 13.3897 20.4743 13.6451 20.6109C13.9005 20.7476 14.1882 20.8124 14.4776 20.7983C14.7669 20.7842 15.047 20.6919 15.2879 20.5311L20.0879 17.3311C20.3071 17.185 20.4868 16.9871 20.611 16.7549C20.7353 16.5226 20.8003 16.2633 20.8003 15.9999C20.8003 15.7366 20.7353 15.4773 20.611 15.245C20.4868 15.0128 20.3071 14.8149 20.0879 14.6687L15.2879 11.4688Z" fill="#F8F9FA"/>
</svg>
