<svg width="56" height="56" viewBox="0 0 56 56" fill="none" xmlns="http://www.w3.org/2000/svg">
<rect width="56" height="56" rx="2.24" fill="#DEE2E6"/>
<path d="M37.3318 26.6649H29.3318V18.6649C29.3318 18.3113 29.1914 17.9721 28.9413 17.7221C28.6913 17.472 28.3521 17.3315 27.9985 17.3315C27.6449 17.3315 27.3058 17.472 27.0557 17.7221C26.8057 17.9721 26.6652 18.3113 26.6652 18.6649V26.6649H18.6652C18.3116 26.6649 17.9724 26.8054 17.7224 27.0554C17.4723 27.3054 17.3318 27.6446 17.3318 27.9982C17.3318 28.3518 17.4723 28.691 17.7224 28.941C17.9724 29.1911 18.3116 29.3315 18.6652 29.3315H26.6652V37.3315C26.6652 37.6852 26.8057 38.0243 27.0557 38.2744C27.3058 38.5244 27.6449 38.6649 27.9985 38.6649C28.3521 38.6649 28.6913 38.5244 28.9413 38.2744C29.1914 38.0243 29.3318 37.6852 29.3318 37.3315V29.3315H37.3318C37.6855 29.3315 38.0246 29.1911 38.2747 28.941C38.5247 28.691 38.6652 28.3518 38.6652 27.9982C38.6652 27.6446 38.5247 27.3054 38.2747 27.0554C38.0246 26.8054 37.6855 26.6649 37.3318 26.6649Z" fill="#343A40"/>
</svg>
