<svg width="24" height="25" viewBox="0 0 24 25" fill="none" xmlns="http://www.w3.org/2000/svg">
<g clip-path="url(#clip0_33548_896)">
<path d="M10.533 1.829C5.35298 1.829 1.12598 5.969 1.12598 11.108C1.12598 16.247 5.35198 20.387 10.533 20.387C12.767 20.387 14.823 19.617 16.44 18.329L20.793 22.682C20.8852 22.7775 20.9956 22.8537 21.1176 22.9061C21.2396 22.9585 21.3708 22.9861 21.5036 22.9873C21.6364 22.9884 21.768 22.9631 21.8909 22.9128C22.0138 22.8625 22.1255 22.7883 22.2194 22.6944C22.3133 22.6005 22.3875 22.4889 22.4378 22.366C22.4881 22.2431 22.5134 22.1114 22.5122 21.9786C22.5111 21.8458 22.4835 21.7146 22.4311 21.5926C22.3787 21.4706 22.3025 21.3603 22.207 21.268L17.863 16.924C19.2079 15.2843 19.942 13.2287 19.94 11.108C19.94 5.968 15.714 1.828 10.533 1.828V1.829ZM3.12598 11.108C3.12598 7.102 6.42798 3.828 10.533 3.828C14.638 3.828 17.94 7.102 17.94 11.108C17.94 15.114 14.638 18.387 10.533 18.387C6.42798 18.387 3.12598 15.115 3.12598 11.108Z" fill="#ADB5BD"/>
</g>
<defs>
<clipPath id="clip0_33548_896">
<rect width="24" height="24" fill="white" transform="translate(0 0.549988)"/>
</clipPath>
</defs>
</svg>
