<svg width="24" height="25" viewBox="0 0 24 25" fill="none" xmlns="http://www.w3.org/2000/svg">
<g clip-path="url(#clip0_33548_890)">
<path d="M13.5 2.06501C13.0439 1.8017 12.5266 1.66309 12 1.66309C11.4734 1.66309 10.9561 1.8017 10.5 2.06501L3 6.39501C2.69597 6.57054 2.4435 6.82301 2.26796 7.12704C2.09243 7.43107 2.00001 7.77595 2 8.12701V21.55C2 21.8152 2.10536 22.0696 2.29289 22.2571C2.48043 22.4447 2.73478 22.55 3 22.55H9C9.26522 22.55 9.51957 22.4447 9.70711 22.2571C9.89464 22.0696 10 21.8152 10 21.55V15.55H14V21.55C14 21.8152 14.1054 22.0696 14.2929 22.2571C14.4804 22.4447 14.7348 22.55 15 22.55H21C21.2652 22.55 21.5196 22.4447 21.7071 22.2571C21.8946 22.0696 22 21.8152 22 21.55V8.12701C22 7.77595 21.9076 7.43107 21.732 7.12704C21.5565 6.82301 21.304 6.57054 21 6.39501L13.5 2.06501Z" fill="#556AEB"/>
</g>
<defs>
<clipPath id="clip0_33548_890">
<rect width="24" height="24" fill="white" transform="translate(0 0.549988)"/>
</clipPath>
</defs>
</svg>
