<svg width="24" height="25" viewBox="0 0 24 25" fill="none" xmlns="http://www.w3.org/2000/svg">
<path d="M3 5.04999C3 5.2489 3.07902 5.43967 3.21967 5.58032C3.36032 5.72097 3.55109 5.79999 3.75 5.79999H20.25C20.4489 5.79999 20.6397 5.72097 20.7803 5.58032C20.921 5.43967 21 5.2489 21 5.04999C21 4.85108 20.921 4.66031 20.7803 4.51966C20.6397 4.37901 20.4489 4.29999 20.25 4.29999H3.75C3.55109 4.29999 3.36032 4.37901 3.21967 4.51966C3.07902 4.66031 3 4.85108 3 5.04999ZM6 2.04999C6 2.2489 6.07902 2.43967 6.21967 2.58032C6.36032 2.72097 6.55109 2.79999 6.75 2.79999H17.25C17.4489 2.79999 17.6397 2.72097 17.7803 2.58032C17.921 2.43967 18 2.2489 18 2.04999C18 1.85108 17.921 1.66031 17.7803 1.51966C17.6397 1.37901 17.4489 1.29999 17.25 1.29999H6.75C6.55109 1.29999 6.36032 1.37901 6.21967 1.51966C6.07902 1.66031 6 1.85108 6 2.04999ZM10.1475 10.414C10.034 10.343 9.90352 10.3038 9.76969 10.3002C9.63585 10.2967 9.50352 10.3291 9.38642 10.394C9.26933 10.4589 9.17174 10.554 9.10379 10.6693C9.03584 10.7847 9 10.9161 9 11.05V18.55C9 18.6839 9.03584 18.8153 9.10379 18.9307C9.17174 19.046 9.26933 19.1411 9.38642 19.206C9.50352 19.2709 9.63585 19.3032 9.76969 19.2997C9.90352 19.2962 10.034 19.2569 10.1475 19.186L16.1475 15.436C16.2554 15.3686 16.3443 15.2748 16.406 15.1636C16.4676 15.0523 16.5 14.9272 16.5 14.8C16.5 14.6728 16.4676 14.5477 16.406 14.4364C16.3443 14.3252 16.2554 14.2314 16.1475 14.164L10.1475 10.414Z" fill="#ADB5BD"/>
<path d="M2.25 22.3C1.65326 22.3 1.08097 22.0629 0.65901 21.641C0.237053 21.219 0 20.6467 0 20.05L0 9.54999C0 8.95325 0.237053 8.38095 0.65901 7.959C1.08097 7.53704 1.65326 7.29999 2.25 7.29999H21.75C22.3467 7.29999 22.919 7.53704 23.341 7.959C23.7629 8.38095 24 8.95325 24 9.54999V20.05C24 20.6467 23.7629 21.219 23.341 21.641C22.919 22.0629 22.3467 22.3 21.75 22.3H2.25ZM21.75 20.8C21.9489 20.8 22.1397 20.721 22.2803 20.5803C22.421 20.4397 22.5 20.2489 22.5 20.05V9.54999C22.5 9.35108 22.421 9.16031 22.2803 9.01966C22.1397 8.87901 21.9489 8.79999 21.75 8.79999H2.25C2.05109 8.79999 1.86032 8.87901 1.71967 9.01966C1.57902 9.16031 1.5 9.35108 1.5 9.54999V20.05C1.5 20.2489 1.57902 20.4397 1.71967 20.5803C1.86032 20.721 2.05109 20.8 2.25 20.8H21.75Z" fill="#ADB5BD"/>
</svg>
